<svg width="118" height="28" viewBox="0 0 118 28" fill="none" xmlns="http://www.w3.org/2000/svg">
<path d="M6.352 6.064L8.624 1.056H7.008V0.799999H10.16V1.056H9.104L6.688 6.4V11.696H7.664V12H2.592V11.696H3.568V6.704L0.848 1.056H0.096V0.799999H5.216V1.056H4.176L6.352 6.064ZM14.1164 11.696L12.9484 8.24H9.78038L8.54838 11.696H9.74838V12H7.30038V11.696H8.05238L12.1324 0.704H13.4444L17.4764 11.696H18.2124V12H12.9804V11.696H14.1164ZM11.4284 3.696L9.92438 7.888H12.8204L11.4284 3.696ZM17.4338 0.799999H22.3138V1.104H21.4338V6.16L21.5618 6.128L26.0738 1.104H24.8098V0.799999H27.6098V1.104H26.6498L23.8978 4.176L27.7378 11.696H28.6018V12H23.4658V11.696H24.2178L21.5778 6.592L21.4338 6.624V11.696H22.3138V12H17.4338V11.696H18.3138V1.104H17.4338V0.799999ZM32.2194 11.824C32.7527 11.824 33.222 11.68 33.6274 11.392C34.0434 11.104 34.2514 10.672 34.2514 10.096C34.2514 9.50933 34.0274 9.06133 33.5794 8.752C33.142 8.44267 32.5127 8.176 31.6914 7.952C30.8807 7.71733 30.2887 7.51467 29.9154 7.344C29.5527 7.17333 29.206 6.94933 28.8754 6.672C28.214 6.11733 27.8834 5.25867 27.8834 4.096C27.8834 3.14667 28.2194 2.33067 28.8914 1.648C29.574 0.965333 30.502 0.624 31.6754 0.624C32.2407 0.624 32.8274 0.709333 33.4354 0.879999C34.054 1.04 34.438 1.12 34.5874 1.12C34.7367 1.12 34.87 1.01333 34.9874 0.799999H35.1634L35.2754 4.032H35.0194C34.5074 3.104 33.9687 2.36267 33.4034 1.808C32.8487 1.24267 32.2407 0.959999 31.5794 0.959999C30.9287 0.959999 30.422 1.11467 30.0594 1.424C29.6967 1.72267 29.5154 2.128 29.5154 2.64C29.5154 3.14133 29.7287 3.53067 30.1554 3.808C30.5927 4.07467 31.126 4.29333 31.7554 4.464C32.3847 4.63467 32.7954 4.752 32.9874 4.816C33.19 4.88 33.4354 4.97067 33.7234 5.088C34.022 5.19467 34.262 5.312 34.4434 5.44C34.6354 5.55733 34.8327 5.712 35.0354 5.904C35.2487 6.08533 35.414 6.288 35.5314 6.512C35.8194 7.024 35.9634 7.632 35.9634 8.336C35.9634 9.488 35.6007 10.416 34.8754 11.12C34.1607 11.8133 33.2167 12.16 32.0434 12.16C31.4354 12.16 30.7367 12.08 29.9474 11.92C29.1687 11.76 28.7367 11.68 28.6514 11.68C28.502 11.68 28.358 11.84 28.2194 12.16H27.9954L27.8354 8.352H28.1074C28.5767 9.28 29.174 10.0907 29.8994 10.784C30.6354 11.4773 31.4087 11.824 32.2194 11.824ZM35.6691 0.799999H40.6611V1.104H39.7331V6.064H42.9171V1.104H41.9731V0.799999H46.9811V1.104H46.0371V11.696H46.9811V12H41.9731V11.696H42.9171V6.48H39.7331V11.696H40.6611V12H35.6691V11.696H36.6131V1.104H35.6691V0.799999ZM46.4375 0.799999H51.3175V1.104H50.4375V11.696H51.3175V12H46.4375V11.696H47.3175V1.104H46.4375V0.799999ZM60.621 0.799999L60.781 4.816H60.477C60.0077 3.39733 59.5917 2.432 59.229 1.92C58.8663 1.39733 58.3437 1.136 57.661 1.136H57.469V11.664H58.829V12H52.989V11.664H54.349V1.136H54.141C53.4583 1.136 52.9303 1.408 52.557 1.952C52.1837 2.48533 51.773 3.44 51.325 4.816H51.021L51.181 0.799999H60.621ZM6.784 23.768L8.112 19.16L7.152 16.104H6.24V15.8H11.2V16.104H10.256L12.64 23.672L14.56 16.104H12.944V15.8H16.144V16.104H15.088L12.144 27.16H10.72L8.352 19.928L6.272 27.16H4.88L0.848 16.104H0.096V15.8H5.296V16.104H4.176L6.784 23.768ZM15.2904 15.8H23.6104L23.7704 18.968H23.4824C23.0344 17.8907 22.565 17.1547 22.0744 16.76C21.5837 16.3547 20.8637 16.152 19.9144 16.152H19.3544V21.096H19.8984C20.3997 21.096 20.821 20.9093 21.1624 20.536C21.5037 20.152 21.7437 19.64 21.8824 19H22.1224V23.736H21.8504C21.6584 22.936 21.397 22.3653 21.0664 22.024C20.7464 21.6827 20.3037 21.512 19.7384 21.512H19.3544V26.648H19.9624C20.9437 26.648 21.7757 26.3547 22.4584 25.768C23.1517 25.1813 23.6264 24.4293 23.8824 23.512H24.2024L24.0744 27H15.2904V26.648H16.2344V16.152H15.2904V15.8ZM23.9948 15.8H28.7788C30.2614 15.8 31.3708 16.0027 32.1068 16.408C32.8534 16.8027 33.2268 17.4747 33.2268 18.424C33.2268 19.8853 32.3468 20.76 30.5868 21.048V21.08C32.7201 21.3467 33.7868 22.2747 33.7868 23.864C33.7868 25.0267 33.3494 25.8427 32.4748 26.312C31.6001 26.7707 30.3414 27 28.6988 27H23.9948V26.696H25.0348V16.104H23.9948V15.8ZM28.1548 21.336V26.696H28.9068C29.4934 26.696 29.9041 26.4933 30.1388 26.088C30.3734 25.6827 30.4908 25.0853 30.4908 24.296V23.448C30.4908 22.744 30.3468 22.216 30.0588 21.864C29.7708 21.512 29.2588 21.336 28.5228 21.336H28.1548ZM28.1548 16.104V21.032H28.5708C29.1254 21.032 29.5094 20.8667 29.7228 20.536C29.9468 20.1947 30.0588 19.6773 30.0588 18.984V18.232C30.0588 17.4427 29.9628 16.8933 29.7708 16.584C29.5788 16.264 29.2108 16.104 28.6668 16.104H28.1548ZM44.3496 21.208C44.3496 23.4053 43.731 24.936 42.4936 25.8C41.3523 26.6 39.7843 27 37.7896 27H33.2616V26.696H34.3176V16.104H33.2616V15.8H38.2056C40.2536 15.8 41.7896 16.2213 42.8136 17.064C43.8376 17.896 44.3496 19.2773 44.3496 21.208ZM37.4376 26.696H38.0456C39.123 26.696 39.891 26.3173 40.3496 25.56C40.819 24.792 41.0536 23.512 41.0536 21.72V20.792C41.0536 18.392 40.595 16.9467 39.6776 16.456C39.2403 16.2213 38.6216 16.104 37.8216 16.104H37.4376V26.696ZM44.0598 15.8H52.3798L52.5398 18.968H52.2518C51.8038 17.8907 51.3344 17.1547 50.8438 16.76C50.3531 16.3547 49.6331 16.152 48.6838 16.152H48.1238V21.096H48.6678C49.1691 21.096 49.5904 20.9093 49.9318 20.536C50.2731 20.152 50.5131 19.64 50.6518 19H50.8918V23.736H50.6198C50.4278 22.936 50.1664 22.3653 49.8358 22.024C49.5158 21.6827 49.0731 21.512 48.5078 21.512H48.1238V26.648H48.7318C49.7131 26.648 50.5451 26.3547 51.2278 25.768C51.9211 25.1813 52.3958 24.4293 52.6518 23.512H52.9718L52.8438 27H44.0598V26.648H45.0038V16.152H44.0598V15.8ZM58.6675 24.104L61.4515 16.104H60.2035V15.8H62.6515V16.104H61.8995L58.0435 27.16H56.6995L52.6195 16.104H51.8835V15.8H57.1155V16.104H55.9795L58.6675 24.104ZM61.7966 15.8H70.1166L70.2766 18.968H69.9886C69.5406 17.8907 69.0713 17.1547 68.5806 16.76C68.09 16.3547 67.37 16.152 66.4206 16.152H65.8606V21.096H66.4046C66.906 21.096 67.3273 20.9093 67.6686 20.536C68.01 20.152 68.25 19.64 68.3886 19H68.6286V23.736H68.3566C68.1646 22.936 67.9033 22.3653 67.5726 22.024C67.2526 21.6827 66.81 21.512 66.2446 21.512H65.8606V26.648H66.4686C67.45 26.648 68.282 26.3547 68.9646 25.768C69.658 25.1813 70.1326 24.4293 70.3886 23.512H70.7086L70.5806 27H61.7966V26.648H62.7406V16.152H61.7966V15.8ZM70.501 15.8H76.261V16.152H74.565V26.648H75.141C76.0477 26.648 76.7677 26.3707 77.301 25.816C77.845 25.2613 78.3943 24.408 78.949 23.256H79.285L78.981 27H70.501V26.648H71.445V16.152H70.501V15.8ZM86.276 22.056V20.872C86.276 18.92 86.18 17.688 85.988 17.176C85.7747 16.5893 85.4707 16.2267 85.076 16.088C84.852 16.0027 84.58 15.96 84.26 15.96C83.94 15.96 83.6627 16.0027 83.428 16.088C83.204 16.1733 83.0173 16.3227 82.868 16.536C82.7187 16.7493 82.596 16.9733 82.5 17.208C82.4147 17.4427 82.3453 17.7733 82.292 18.2C82.228 18.8187 82.196 19.7307 82.196 20.936V22.088C82.196 23.3893 82.244 24.3173 82.34 24.872C82.4467 25.416 82.5747 25.8053 82.724 26.04C83.0547 26.5627 83.5667 26.824 84.26 26.824C85.1027 26.824 85.6467 26.472 85.892 25.768C86.148 25.0533 86.276 23.816 86.276 22.056ZM84.228 27.16C82.4467 27.16 81.1133 26.68 80.228 25.72C79.3533 24.7493 78.916 23.352 78.916 21.528C78.916 19.6933 79.3853 18.2533 80.324 17.208C81.2733 16.152 82.612 15.624 84.34 15.624C86.068 15.624 87.3693 16.1253 88.244 17.128C89.1293 18.12 89.572 19.5333 89.572 21.368C89.572 23.2027 89.124 24.6267 88.228 25.64C87.3427 26.6533 86.0093 27.16 84.228 27.16ZM89.1888 15.8H93.8928C95.5034 15.8 96.7034 16.0347 97.4928 16.504C98.2821 16.9627 98.6768 17.7893 98.6768 18.984C98.6768 20.3067 98.1968 21.2187 97.2368 21.72C96.3408 22.1787 95.0874 22.408 93.4768 22.408H93.3488V26.696H95.3488V27H89.1888V26.696H90.2288V16.104H89.1888V15.8ZM93.3488 16.104V22.104H93.6848C94.3248 22.104 94.7674 21.8853 95.0128 21.448C95.2581 21.0107 95.3808 20.3013 95.3808 19.32V18.552C95.3808 17.6453 95.2634 17.0107 95.0288 16.648C94.8048 16.2853 94.3888 16.104 93.7808 16.104H93.3488ZM98.1454 15.8H106.465L106.625 18.968H106.337C105.889 17.8907 105.42 17.1547 104.929 16.76C104.439 16.3547 103.719 16.152 102.769 16.152H102.209V21.096H102.753C103.255 21.096 103.676 20.9093 104.017 20.536C104.359 20.152 104.599 19.64 104.737 19H104.977V23.736H104.705C104.513 22.936 104.252 22.3653 103.921 22.024C103.601 21.6827 103.159 21.512 102.593 21.512H102.209V26.648H102.817C103.799 26.648 104.631 26.3547 105.313 25.768C106.007 25.1813 106.481 24.4293 106.737 23.512H107.057L106.929 27H98.1454V26.648H99.0894V16.152H98.1454V15.8ZM111.762 21.336H110.914V26.696H111.954V27H106.754V26.696H107.794V16.104H106.754V15.8H111.586C112.972 15.8 113.954 15.8747 114.53 16.024C115.116 16.1627 115.527 16.3333 115.762 16.536C116.274 16.952 116.53 17.6133 116.53 18.52C116.53 19.4267 116.306 20.0773 115.858 20.472C115.41 20.856 114.727 21.0853 113.81 21.16V21.208C114.674 21.3253 115.276 21.5813 115.618 21.976C115.959 22.3707 116.13 23.032 116.13 23.96V24.808C116.13 25.3627 116.156 25.736 116.21 25.928C116.274 26.12 116.402 26.216 116.594 26.216C116.786 26.216 116.935 26.1307 117.042 25.96C117.159 25.7787 117.266 25.4053 117.362 24.84L117.634 24.872C117.516 25.7787 117.308 26.3867 117.01 26.696C116.722 27.0053 116.14 27.16 115.266 27.16C114.391 27.16 113.767 26.9573 113.394 26.552C113.031 26.136 112.85 25.3627 112.85 24.232V23.064C112.85 22.4667 112.77 22.0293 112.61 21.752C112.46 21.4747 112.178 21.336 111.762 21.336ZM110.914 16.104V21.032H111.426C112.034 21.032 112.482 20.8453 112.77 20.472C113.068 20.0987 113.218 19.4907 113.218 18.648V18.184C113.218 17.3413 113.074 16.7867 112.786 16.52C112.508 16.2427 112.06 16.104 111.442 16.104H110.914Z" fill="white"/>
</svg>
